<svg width="40" height="40" viewBox="0 0 40 40" fill="none" xmlns="http://www.w3.org/2000/svg">
<rect width="40.0002" height="40.0002" rx="19" fill="white" fill-opacity="0.08"/>
<path fill-rule="evenodd" clip-rule="evenodd" d="M16.0871 10.6426C14.5449 10.7122 13.2082 11.0893 12.1288 12.1641C11.0457 13.2445 10.6733 14.5865 10.6036 16.1127C10.5602 17.0652 10.3067 24.2616 11.0419 26.1489C11.5378 27.4221 12.5144 28.401 13.7992 28.8985C14.3988 29.1317 15.0832 29.2895 16.0871 29.3356C24.4816 29.7155 27.5933 29.5087 28.9055 26.1489C29.1383 25.5508 29.2986 24.867 29.3429 23.8656C29.7266 15.4496 29.2807 13.6253 27.8177 12.1641C26.6572 11.0065 25.2923 10.2185 16.0871 10.6426ZM16.1644 27.643C15.2453 27.6016 14.7466 27.4485 14.4138 27.3197C13.5768 26.9943 12.948 26.3681 12.6247 25.5359C12.0647 24.1019 12.2504 17.2911 12.3004 16.189C12.3494 15.1095 12.5681 14.1229 13.3298 13.3612C14.2725 12.4209 15.4904 11.96 23.783 12.3343C24.8652 12.3832 25.8541 12.6014 26.6176 13.3612C27.5603 14.3016 28.0279 15.5289 27.647 23.7897C27.6056 24.7065 27.4519 25.204 27.3228 25.5359C26.4697 27.7222 24.507 28.0257 16.1644 27.643ZM23.8745 14.9692C23.8745 15.5917 24.3807 16.0979 25.0057 16.0979C25.6307 16.0979 26.1378 15.5917 26.1378 14.9692C26.1378 14.3467 25.6307 13.8409 25.0057 13.8409C24.3807 13.8409 23.8745 14.3467 23.8745 14.9692ZM15.1331 19.9887C15.1331 22.6554 17.3003 24.8176 19.9737 24.8176C22.6471 24.8176 24.8143 22.6554 24.8143 19.9887C24.8143 17.3219 22.6471 15.1611 19.9737 15.1611C17.3003 15.1611 15.1331 17.3219 15.1331 19.9887ZM16.8318 19.9887C16.8318 18.2584 18.2383 16.8547 19.9737 16.8547C21.7092 16.8547 23.1156 18.2584 23.1156 19.9887C23.1156 21.7198 21.7092 23.124 19.9737 23.124C18.2383 23.124 16.8318 21.7198 16.8318 19.9887Z" fill="white"/>
</svg>
