<svg width="40" height="40" viewBox="0 0 40 40" fill="none" xmlns="http://www.w3.org/2000/svg">
<rect width="40.0002" height="40.0002" rx="19" fill="white" fill-opacity="0.08"/>
<path fill-rule="evenodd" clip-rule="evenodd" d="M16.9588 27.3688C23.4136 27.3688 26.9442 22.1034 26.9442 17.5377C26.9442 17.3879 26.9442 17.2391 26.9339 17.0909C27.6207 16.6025 28.2134 15.9961 28.6847 15.3022C28.0449 15.5818 27.365 15.7651 26.6696 15.846C27.4017 15.414 27.95 14.7353 28.2125 13.9345C27.5232 14.337 26.7697 14.6211 25.9837 14.7735C24.6546 13.3825 22.4317 13.3151 21.0179 14.6236C20.1071 15.4674 19.7196 16.7254 20.0027 17.9253C17.1812 17.7855 14.552 16.4736 12.7696 14.3154C11.8383 15.8943 12.3146 17.9133 13.8567 18.9271C13.2982 18.9111 12.7517 18.7631 12.2633 18.4953V18.5392C12.2642 20.1837 13.4419 21.5998 15.0789 21.9256C14.5623 22.0646 14.0201 22.0847 13.4949 21.9845C13.9542 23.3924 15.2722 24.3568 16.7732 24.3846C15.5305 25.3462 13.9953 25.8683 12.4147 25.8667C12.1359 25.8658 11.8571 25.8498 11.5791 25.817C13.1845 26.8308 15.0515 27.3689 16.9588 27.3663" fill="white"/>
</svg>
