<svg width="40" height="40" viewBox="0 0 40 40" fill="none" xmlns="http://www.w3.org/2000/svg">
<rect width="40.0002" height="40.0002" rx="19" fill="white" fill-opacity="0.08"/>
<g clip-path="url(#clip0_93_21376)">
<path fill-rule="evenodd" clip-rule="evenodd" d="M17.637 22.87V17.9184C19.3949 18.7455 20.7563 19.5446 22.3665 20.406C21.0384 21.1425 19.3949 21.9689 17.637 22.87ZM27.4335 15.4557C27.1302 15.0562 26.6134 14.7452 26.0632 14.6423C24.446 14.3352 14.3569 14.3343 12.7406 14.6423C12.2994 14.725 11.9065 14.9249 11.569 15.2355C10.1469 16.5555 10.5925 23.6338 10.9353 24.7803C11.0794 25.2766 11.2658 25.6345 11.5004 25.8695C11.8028 26.1801 12.2167 26.394 12.6922 26.4899C14.0238 26.7653 20.8837 26.9193 26.0351 26.5313C26.5097 26.4485 26.9298 26.2278 27.2612 25.904C28.576 24.5893 28.4864 17.1135 27.4335 15.4557Z" fill="white"/>
</g>
<defs>
<clipPath id="clip0_93_21376">
<rect width="17.6471" height="17.6471" fill="white" transform="translate(10.5884 11.7646)"/>
</clipPath>
</defs>
</svg>
