<svg width="130" height="33" viewBox="0 0 130 33" fill="none" xmlns="http://www.w3.org/2000/svg">
<path d="M8.59649 25.3636H23.2506V32.4091H0V0.59091H8.59649V25.3636Z" fill="white"/>
<path d="M29.6016 4.54545C32.5413 1.51515 36.4907 0 41.4496 0C46.4085 0 50.3579 1.51515 53.2976 4.54545C56.2374 7.54546 57.7072 11.5455 57.7072 16.5455C57.7072 21.5152 56.2374 25.5 53.2976 28.5C50.3579 31.5 46.4085 33 41.4496 33C36.4907 33 32.5413 31.5 29.6016 28.5C26.6619 25.5 25.192 21.5152 25.192 16.5455C25.192 11.5455 26.6619 7.54546 29.6016 4.54545ZM46.9282 9.77273C45.5623 8.04546 43.7361 7.18182 41.4496 7.18182C39.1631 7.18182 37.3369 8.04546 35.971 9.77273C34.6051 11.4697 33.9221 13.7121 33.9221 16.5C33.9221 19.2879 34.6051 21.5455 35.971 23.2727C37.3369 24.9697 39.1631 25.8182 41.4496 25.8182C43.7361 25.8182 45.5623 24.9697 46.9282 23.2727C48.2941 21.5455 48.9771 19.2879 48.9771 16.5C48.9771 13.7121 48.2941 11.4697 46.9282 9.77273Z" fill="white"/>
<path d="M76.8802 14.5455H92.6479V32.4091H86.902L86.323 28.6818C84.2444 31.5606 81.1413 33 77.0138 33C72.2627 33 68.4767 31.5 65.6558 28.5C62.8645 25.4697 61.4689 21.4697 61.4689 16.5C61.4689 11.5303 62.9387 7.54546 65.8785 4.54545C68.8182 1.51515 72.7675 0 77.7265 0C81.8243 0 85.1797 1.0303 87.7928 3.09091C90.4356 5.15152 92.0391 7.98485 92.6033 11.5909H83.7396C82.8191 8.43939 80.7701 6.86364 77.5929 6.86364C75.247 6.86364 73.4208 7.78788 72.1143 9.63636C70.8077 11.4545 70.1544 13.7273 70.1544 16.4545C70.1544 19.4242 70.8226 21.7576 72.1588 23.4545C73.4951 25.1515 75.3955 26 77.8601 26C79.5527 26 80.9929 25.5455 82.1806 24.6364C83.3981 23.7273 84.2295 22.4394 84.6749 20.7727H76.8802V14.5455Z" fill="white"/>
<path d="M101.894 4.54545C104.834 1.51515 108.783 0 113.742 0C118.701 0 122.651 1.51515 125.59 4.54545C128.53 7.54546 130 11.5455 130 16.5455C130 21.5152 128.53 25.5 125.59 28.5C122.651 31.5 118.701 33 113.742 33C108.783 33 104.834 31.5 101.894 28.5C98.9546 25.5 97.4848 21.5152 97.4848 16.5455C97.4848 11.5455 98.9546 7.54546 101.894 4.54545ZM119.221 9.77273C117.855 8.04546 116.029 7.18182 113.742 7.18182C111.456 7.18182 109.63 8.04546 108.264 9.77273C106.898 11.4697 106.215 13.7121 106.215 16.5C106.215 19.2879 106.898 21.5455 108.264 23.2727C109.63 24.9697 111.456 25.8182 113.742 25.8182C116.029 25.8182 117.855 24.9697 119.221 23.2727C120.587 21.5455 121.27 19.2879 121.27 16.5C121.27 13.7121 120.587 11.4697 119.221 9.77273Z" fill="white"/>
</svg>
