<svg width="104" height="105" viewBox="0 0 104 105" fill="none" xmlns="http://www.w3.org/2000/svg">
<circle cx="52" cy="49" r="40" fill="#FA9F3C"/>
<g filter="url(#filter0_d_93_21417)">
<path d="M51.9997 66.3445C61.9408 66.3445 69.9998 58.2855 69.9998 48.3444C69.9998 38.4032 61.9408 30.3442 51.9997 30.3442C42.0584 30.3442 33.9995 38.4032 33.9995 48.3444C33.9995 51.2239 34.6756 53.9453 35.8778 56.3589C36.1972 57.0003 36.3035 57.7334 36.1183 58.4255L35.0462 62.4326C34.5808 64.1719 36.1721 65.7631 37.9116 65.2978L41.9185 64.2257C42.6107 64.0405 43.3438 64.1469 43.9851 64.4662C46.3987 65.6684 49.1202 66.3445 51.9997 66.3445Z" fill="white"/>
<path d="M44.4845 49.8745C43.6644 49.8745 42.9995 50.5394 42.9995 51.3595C42.9995 52.1796 43.6644 52.8445 44.4845 52.8445H55.3746C56.1947 52.8445 56.8596 52.1796 56.8596 51.3595C56.8596 50.5394 56.1947 49.8745 55.3746 49.8745H44.4845Z" fill="#FA9F3C"/>
<path d="M44.4845 43.0757C43.6644 43.0757 42.9995 43.7406 42.9995 44.5607C42.9995 45.3808 43.6644 46.0457 44.4845 46.0457H60.3246C61.1447 46.0457 61.8097 45.3808 61.8097 44.5607C61.8097 43.7406 61.1447 43.0757 60.3246 43.0757H44.4845Z" fill="#FA9F3C"/>
</g>
<defs>
<filter id="filter0_d_93_21417" x="-0.000488281" y="0.344238" width="104" height="104" filterUnits="userSpaceOnUse" color-interpolation-filters="sRGB">
<feFlood flood-opacity="0" result="BackgroundImageFix"/>
<feColorMatrix in="SourceAlpha" type="matrix" values="0 0 0 0 0 0 0 0 0 0 0 0 0 0 0 0 0 0 127 0" result="hardAlpha"/>
<feOffset dy="4"/>
<feGaussianBlur stdDeviation="17"/>
<feComposite in2="hardAlpha" operator="out"/>
<feColorMatrix type="matrix" values="0 0 0 0 0 0 0 0 0 0 0 0 0 0 0 0 0 0 0.1 0"/>
<feBlend mode="normal" in2="BackgroundImageFix" result="effect1_dropShadow_93_21417"/>
<feBlend mode="normal" in="SourceGraphic" in2="effect1_dropShadow_93_21417" result="shape"/>
</filter>
</defs>
</svg>
